<?xml version="1.0" encoding="utf-8"?>
<!-- Generator: Adobe Illustrator 23.0.1, SVG Export Plug-In . SVG Version: 6.00 Build 0)  -->
<svg version="1.1" id="Layer_1" xmlns="http://www.w3.org/2000/svg" xmlns:xlink="http://www.w3.org/1999/xlink" x="0px" y="0px"
	 viewBox="0 0 423.8 423.8" style="enable-background:new 0 0 423.8 423.8;" xml:space="preserve">
<style type="text/css">
	.st0{fill:#3D3D3D;}
</style>
<g>
	<g>
		<path class="st0" d="M189.3,385.2l112.5,38.5l98.5-98.5L287,287.5L189.3,385.2z M240,379.2c-6,6-15.7,8.5-21.7,5.8
			c-6-2.8-6.1-9.9-0.1-15.8c6-6,15.7-8.5,21.7-5.8C245.9,366.2,245.9,373.2,240,379.2z M276.3,391.9c-6,6-15.7,8.5-21.7,5.8
			c-6-2.8-6.1-9.9-0.1-15.8c6-6,15.7-8.5,21.7-5.8C282.2,378.9,282.3,386,276.3,391.9z M349.6,334.9c6-6,15.7-8.5,21.7-5.8
			c6,2.8,6.1,9.9,0.1,15.8s-15.7,8.5-21.7,5.8S343.6,340.9,349.6,334.9z M313.3,323c6-6,15.7-8.5,21.7-5.8c6,2.8,6.1,9.9,0.1,15.8
			c-6,6-15.7,8.5-21.7,5.8C307.4,336.1,307.4,329,313.3,323z M312.4,388c6,2.8,6.1,9.9,0.1,15.8c-6,6-15.7,8.5-21.7,5.8
			s-6.1-9.9-0.1-15.8C296.7,387.8,306.4,385.2,312.4,388z M298.7,304.5c6,2.8,6.1,9.9,0.1,15.8c-6,6-15.7,8.5-21.7,5.8
			c-6-2.8-6.1-9.9-0.1-15.8C283,304.3,292.7,301.8,298.7,304.5z"/>
		<path class="st0" d="M402.2,311.6L365,200l-111.6-37.2l37.2,111.6L402.2,311.6z M319.3,224.1c4.2-4.2,12.5-2.6,18.7,3.6
			s7.8,14.5,3.6,18.7c-4.2,4.2-12.5,2.6-18.7-3.6C316.7,236.7,315.1,228.3,319.3,224.1z"/>
		<path class="st0" d="M135.2,0L29.9,52.6l105.2,52.6l105.2-52.6L135.2,0z M135.2,63.3c-8.7,0-15.8-4.8-15.8-10.7
			c0-5.9,7.1-10.7,15.8-10.7S151,46.7,151,52.6C150.9,58.5,143.9,63.3,135.2,63.3z"/>
		<path class="st0" d="M162.2,201.7c5-1.9,9.2,1.1,10.7,6.7l63-63l12.8,4.3V63.5l-106.8,53.4v122.5l10.8-10.8
			c-1.1-2-1.8-4.5-1.8-7.5C150.9,212.7,156,204,162.2,201.7z M231,86.9c6.2-2.3,11.3,2.7,11.3,11.1s-5,17.1-11.3,19.4
			s-11.3-2.7-11.3-11.1C219.7,97.9,224.7,89.2,231,86.9z M198.8,142c6.2-2.3,11.3,2.7,11.3,11.1s-5,17.1-11.3,19.4
			s-11.3-2.7-11.3-11.1C187.6,153,192.6,144.3,198.8,142z M150.9,140.2c0-8.4,5-17.1,11.3-19.4s11.3,2.7,11.3,11.1
			c0,8.4-5,17.1-11.3,19.4C156,153.6,150.9,148.6,150.9,140.2z"/>
		<path class="st0" d="M21.6,202.8l105.3,51.6l1.5-1.5v-136L21.6,63.5V202.8z M107.9,201.7c6.2,2.3,11.3,11,11.3,19.4
			s-5,13.4-11.3,11.1s-11.3-11-11.3-19.4C96.6,204.4,101.6,199.4,107.9,201.7z M75,140.3c6.2,2.3,11.3,11,11.3,19.4
			c0,8.4-5,13.4-11.3,11.1s-11.3-11-11.3-19.4C63.7,143,68.8,138,75,140.3z M41.2,86.9c6.2,2.3,11.3,11,11.3,19.4
			c0,8.4-5,13.4-11.3,11.1s-11.3-11-11.3-19.4C29.9,89.5,35,84.6,41.2,86.9z"/>
		<path class="st0" d="M239.7,164.6l-98.5,98.5l38.5,112.5l97.7-97.7L239.7,164.6z M197.7,338.6c-6,6-13,5.9-15.8-0.1
			c-2.8-6-0.2-15.7,5.8-21.7c6-6,13-5.9,15.8,0.1C206.2,322.9,203.6,332.6,197.7,338.6z M230.5,221.8c-6,6-13,5.9-15.8-0.1
			c-2.8-6-0.2-15.7,5.8-21.7c6-6,13-5.9,15.8,0.1C239.1,206.1,236.5,215.8,230.5,221.8z"/>
	</g>
</g>
</svg>
